<?xml version="1.0" encoding="utf-8"?>
<!-- Generator: Adobe Illustrator 25.4.1, SVG Export Plug-In . SVG Version: 6.00 Build 0)  -->
<svg version="1.1" id="Layer_1" xmlns="http://www.w3.org/2000/svg" xmlns:xlink="http://www.w3.org/1999/xlink" x="0px" y="0px"
	 viewBox="0 0 949 417" style="enable-background:new 0 0 949 417;" xml:space="preserve">
<style type="text/css">
	.st0{fill:none;stroke:#3C3D3B;stroke-width:18;stroke-miterlimit:10;}
	.st1{fill:#CD3E28;}
	.st2{fill:#E9CD1F;}
	.st3{fill:none;stroke:#3C3D3B;stroke-width:33;stroke-miterlimit:10;}
</style>
<g>
	<path class="st0" d="M104.5,337.1c-0.9-1.5-2-2.9-3.3-4.2c-4.1-4.1-9-6.1-14.7-6.1c-4.6,0-8.8,1.4-12.5,4.2
		c-3.5-2.6-7.4-4-11.7-4.2h-0.8c-5.7,0-10.6,2.1-14.6,6.1c-4,4-6.1,8.9-6.1,14.6v52.6h5v5.8h16.6v-52.5c0-0.2,0-0.3,0.1-0.4v-0.2
		c0-0.1,0.1-0.2,0.1-0.2l0.1-0.2c0-0.2,0-0.2,0.1-0.2l0.1-0.2l0.1-0.2c0-0.1,0.1-0.2,0.2-0.3c0,0,0,0,0-0.1c0-0.1,0.1-0.2,0.2-0.3
		c0.1-0.2,0.1-0.2,0.1-0.1c0-0.1,0.1-0.2,0.2-0.3h0.1v-0.1c0.1-0.1,0.2-0.2,0.2-0.2v-0.1c0.1-0.1,0.2-0.2,0.3-0.2
		c0.5-0.5,1.1-0.8,1.8-0.9v50.8h5v5.8h16.6v-52.5c0-1.2,0.4-2.1,1.2-3c0.6-0.6,1.3-1,2-1.1v50.8h5v5.8h16.7v-52.5
		c0-5.7-2-10.6-6.1-14.7C105.7,338.1,105.1,337.6,104.5,337.1z"/>
	<path class="st0" d="M206.8,385c-0.6-4.1-2.2-7.9-5-11.3c3.4-3.9,5.1-8.4,5.1-13.5v-5.2c0-5.7-2-10.6-6-14.6
		c-0.6-0.6-1.2-1.1-1.8-1.6c-0.9-1.5-2-2.9-3.3-4.2c-4.1-4-8.9-6.1-14.6-6.1h-20.9v23.6c-0.6-4.5-2.5-8.4-5.9-11.7
		c-0.6-0.6-1.2-1.1-1.8-1.6c-0.9-1.5-2-2.9-3.3-4.2c-4-4-8.9-6.1-14.6-6.1h-20.8v71.5h5v5.8h16.6v-25h4.2c5.7,0,10.6-2,14.6-6
		c3.3-3.4,5.3-7.3,5.9-11.7v37h5v5.8h16.7v-25h3.4l2.7,19.2h4.2l0.8,5.8h16.6l-2.8-20.4L206.8,385z M135.5,350.9h3.3v3.4
		c0,1.2-0.4,2.1-1.2,3c-0.6,0.6-1.3,1-2.1,1.1V350.9z M181.9,351h3.3v3.4c0,1.2-0.4,2.1-1.2,3c-0.6,0.6-1.3,0.9-2,1.1V351z"/>
	<path class="st0" d="M246.6,337.1c-0.9-1.5-2-2.9-3.3-4.2c-4-4-8.9-6-14.6-6c-5.7,0-10.6,2-14.6,6c-4.1,4-6.1,8.8-6.2,14.6v33.9
		c0,5.7,2.1,10.5,6.2,14.5c0.5,0.5,1.1,1,1.7,1.5c0.9,1.5,2,2.9,3.4,4.3c4.1,4,8.9,6,14.6,6c5.7,0,10.6-2,14.6-6
		c4.1-4,6.1-8.9,6.2-14.6v-33.7c0-5.7-2.1-10.6-6.2-14.6C247.7,338.1,247.1,337.6,246.6,337.1z M229.5,353.4c0-1.2,0.4-2.1,1.2-3
		c0.6-0.6,1.3-1,2.1-1.1v31.8c0,1.2-0.4,2.1-1.2,3c-0.6,0.6-1.3,1-2.1,1.1V353.4z"/>
	<path class="st0" d="M424.7,337c-0.9-1.5-2-2.9-3.3-4.2c-4.1-4.1-9-6.1-14.7-6.1c-5.8,0-10.7,2-14.7,6.1c-4.1,4.1-6.1,9-6.1,14.7
		v52.6h5v5.8h16.7v-16.7h3.3v10.9h5v5.8h16.7v-52.6c0-5.8-2-10.7-6.1-14.7C425.9,338.1,425.3,337.5,424.7,337z M407.6,353.4
		c0-1.2,0.4-2.1,1.2-3c0.6-0.6,1.3-1,2-1.1v17.5h-3.3V353.4z"/>
	<path class="st0" d="M563.9,385c-0.6-4.1-2.2-7.9-5-11.3c3.4-3.9,5.1-8.4,5.1-13.5v-5.2c0-5.7-2-10.6-6-14.6
		c-0.6-0.6-1.2-1.1-1.8-1.6c-0.9-1.5-2-2.9-3.3-4.2c-4.1-4-8.9-6.1-14.6-6.1h-20.9v71.6h5v5.8H539v-25h3.4l2.7,19.2h4.2l0.8,5.8
		h16.6l-2.8-20.4L563.9,385z M539,351h3.3v3.4c0,1.2-0.4,2.1-1.2,3c-0.6,0.6-1.3,0.9-2,1.1V351z"/>
	<path class="st0" d="M668.3,337.1c-0.9-1.5-2-2.9-3.3-4.2c-4-4-8.9-6-14.6-6c-5.7,0-10.6,2-14.6,6c-1.5,1.4-2.7,3-3.6,4.7v-14.8h-5
		v-5.8h-41.6v16.7h5v5.8h7.3v60.8h5v5.8h16.6v-66.5h11.7c-1.1,2.5-1.6,5.1-1.6,8v33.9c0,5.7,2.1,10.5,6.2,14.5
		c0.5,0.5,1.1,1,1.7,1.5c0.9,1.5,2,2.9,3.4,4.3c4.1,4,8.9,6,14.6,6c5.7,0,10.6-2,14.6-6c4.1-4,6.1-8.9,6.2-14.6v-33.7
		c0-5.7-2.1-10.6-6.2-14.6C669.5,338.1,668.9,337.6,668.3,337.1z M651.2,353.4c0-1.2,0.4-2.1,1.2-3c0.6-0.6,1.3-1,2.1-1.1v31.8
		c0,1.2-0.4,2.1-1.2,3c-0.6,0.6-1.3,1-2.1,1.1V353.4z"/>
	<path class="st0" d="M852.2,337.1c-0.9-1.5-2-2.9-3.3-4.2c-4-4-8.9-6-14.6-6c-5.7,0-10.6,2-14.6,6c-4.1,4-6.1,8.8-6.2,14.6v33.9
		c0,5.7,2.1,10.5,6.2,14.5c0.5,0.5,1.1,1,1.7,1.5c0.9,1.5,2,2.9,3.4,4.3c4.1,4,8.9,6,14.6,6c5.7,0,10.6-2,14.6-6
		c4.1-4,6.1-8.9,6.2-14.6v-33.7c0-5.7-2.1-10.6-6.2-14.6C853.3,338.1,852.8,337.6,852.2,337.1z M835.1,353.4c0-1.2,0.4-2.1,1.2-3
		c0.6-0.6,1.3-1,2.1-1.1v31.8c0,1.2-0.4,2.1-1.2,3c-0.6,0.6-1.3,1-2.1,1.1V353.4z"/>
	<path class="st0" d="M923.9,334.3v-5.8h-16.7v22.7c-0.5-4.8-2.5-9-6-12.5c-0.6-0.6-1.1-1.1-1.7-1.6c-0.9-1.5-2-2.9-3.3-4.2
		c-4-4-8.9-6-14.6-6c-5.7,0-10.6,2-14.6,6c-4.1,4-6.1,8.8-6.2,14.6v33.9c0,5.7,2.1,10.5,6.2,14.5c0.5,0.5,1.1,1,1.7,1.5
		c0.9,1.5,2,2.9,3.4,4.3c4.1,4,8.9,6,14.6,6c5.7,0,10.6-2,14.6-6c3.6-3.5,5.6-7.7,6-12.5v11.2h5v5.8H929v-71.7H923.9z M882.4,353.4
		c0-1.2,0.4-2.1,1.2-3c0.6-0.6,1.3-1,2.1-1.1v31.8c0,1.2-0.4,2.1-1.2,3c-0.6,0.6-1.3,1-2.1,1.1V353.4z"/>
	<polygon class="st0" points="34.4,316.9 17.8,316.9 17.8,400.2 22.8,400.2 22.8,406 39.5,406 39.5,322.7 34.4,322.7 	"/>
	<polygon class="st0" points="338,328.5 321.3,328.5 321.3,367.3 318.1,367.3 318.1,334.3 313,334.3 313,328.5 296.4,328.5 
		296.4,334.3 294.7,334.3 294.7,328.6 253.1,328.6 253.1,345.2 258.2,345.2 258.2,351 265.5,351 265.5,400.2 270.5,400.2 
		270.5,405.9 287.1,405.9 287.1,351 296.4,351 296.4,400.2 301.4,400.2 301.4,406 318.1,406 318.1,389.8 321.3,389.8 321.3,400.2 
		326.4,400.2 326.4,406 343.1,406 343.1,334.3 338,334.3 	"/>
	<polygon class="st0" points="380.7,328.5 344,328.5 344,400.2 349.1,400.2 349.1,406 385.7,406 385.7,389.3 380.7,389.3 
		380.7,383.6 365.8,383.6 365.8,381 382.4,381 382.4,364.3 377.4,364.3 377.4,358.5 365.8,358.5 365.8,350.9 385.7,350.9 
		385.7,334.3 380.7,334.3 	"/>
	<polygon class="st0" points="511.9,328.5 475.3,328.5 475.3,334.3 473.4,334.3 473.4,328.6 431.9,328.6 431.9,345.2 436.9,345.2 
		436.9,351 444.2,351 444.2,400.2 449.3,400.2 449.3,405.9 465.9,405.9 465.9,351 475.3,351 475.3,400.2 480.3,400.2 480.3,406 
		517,406 517,389.3 511.9,389.3 511.9,383.6 497,383.6 497,381 513.7,381 513.7,364.3 508.6,364.3 508.6,358.5 497,358.5 497,350.9 
		517,350.9 517,334.3 511.9,334.3 	"/>
	<polygon class="st0" points="712.9,328.5 676.3,328.5 676.3,400.2 681.3,400.2 681.3,406 718,406 718,389.3 712.9,389.3 
		712.9,383.6 698,383.6 698,381 714.6,381 714.6,364.3 709.6,364.3 709.6,358.5 698,358.5 698,350.9 718,350.9 718,334.3 
		712.9,334.3 	"/>
	<path class="st0" d="M807.3,328.6h-16.6v13.9l-3.3-7.7v-0.4h-2.7l-2.3-5.4v-0.4h-16.6V391l-0.8-5.5l-0.1-0.5
		c-0.6-4.1-2.2-7.9-5-11.3c3.4-3.9,5.1-8.4,5.1-13.5v-5.2c0-5.7-2-10.6-6-14.6c-0.6-0.6-1.2-1.1-1.8-1.6c-0.9-1.5-2-2.9-3.3-4.2
		c-4.1-4-8.9-6.1-14.6-6.1h-20.9v71.6h5v5.8H740v-25h3.4l2.7,19.2h4.2l0.8,5.8h16.6l-0.8-5.8h3.8v5.8h16.6v-31.2l3.3,7.7v17.7h5v5.8
		h16.6v-71.5h-5V328.6z M740,351h3.3v3.4c0,1.2-0.4,2.1-1.2,3c-0.6,0.6-1.3,0.9-2,1.1V351z"/>
</g>
<g>
	<path class="st1" d="M39.4,405.5H22.8v-83.3h16.7V405.5z"/>
	<path class="st1" d="M112.4,405.4H95.7v-52.5c0-1.2-0.4-2.1-1.2-3s-1.8-1.2-2.9-1.2c-1.2,0-2.1,0.4-3,1.2s-1.2,1.8-1.2,3v52.5H70.8
		v-52.5c0-1.2-0.4-2.1-1.2-3s-1.8-1.2-3-1.2c-1,0-1.9,0.3-2.7,1c-0.1,0.1-0.2,0.2-0.3,0.2v0.1c-0.1,0.1-0.2,0.2-0.2,0.2v0.1h-0.1
		c-0.1,0.1-0.1,0.2-0.2,0.3c0.1-0.1,0.1-0.1-0.1,0.1c-0.1,0.1-0.1,0.2-0.2,0.3c0,0,0,0,0,0.1c-0.1,0.1-0.1,0.2-0.2,0.3l-0.1,0.2
		l-0.1,0.2c0,0-0.1,0.1-0.1,0.2l-0.1,0.2c0,0,0,0.1-0.1,0.2v0.2c0,0.1-0.1,0.3-0.1,0.4v52.5H45.8v-52.6c0-5.7,2.1-10.6,6.1-14.6
		c4-4,8.9-6.1,14.6-6.1h0.8c4.3,0.2,8.2,1.5,11.7,4.2c3.7-2.8,7.8-4.2,12.5-4.2c5.7,0,10.6,2,14.7,6.1s6.1,9,6.1,14.7V405.4z"/>
	<path class="st1" d="M160.4,359.8c0,5.7-2.1,10.6-6.1,14.6c-4,4-8.9,6-14.6,6h-4.2v25h-16.6v-71.5h20.8c5.7,0,10.6,2.1,14.6,6.1
		c4,4,6.1,8.9,6.1,14.6V359.8z M143.8,354.7c0-1.2-0.4-2.1-1.2-3s-1.8-1.2-3-1.2h-4.2v13.4h4.2c1.2,0,2.1-0.4,3-1.2s1.2-1.8,1.2-3
		V354.7z"/>
	<path class="st1" d="M209.6,405.5H193l-2.8-20l-0.1-0.8c-0.2-1.2-0.8-2.1-1.7-3c-0.9-0.8-2-1.2-3.1-1.2h-3.5v25h-16.7v-71.6h20.9
		c5.7,0,10.6,2.1,14.6,6.1c4,4,6,8.9,6,14.6v5.2c0,5.1-1.7,9.7-5.1,13.5c2.7,3.4,4.4,7.2,5,11.3l0.1,0.5L209.6,405.5z M186,363.9
		c1.2,0,2.1-0.4,3-1.2c0.8-0.8,1.2-1.8,1.2-3v-5.1c0-1.1-0.4-2.1-1.2-2.9s-1.8-1.2-3-1.2h-4.1v13.4H186z"/>
	<path class="st1" d="M254.4,386.5c0,5.7-2.1,10.6-6.2,14.6c-4,4-8.9,6-14.6,6c-5.7,0-10.6-2-14.6-6c-4.1-4-6.1-8.8-6.2-14.5v-33.9
		c0-5.7,2.1-10.6,6.2-14.6c4.1-4,8.9-6,14.6-6c5.7,0,10.6,2,14.6,6c4.1,4,6.1,8.9,6.2,14.6V386.5z M237.8,352.9c0-1.2-0.4-2.1-1.2-3
		c-0.8-0.8-1.8-1.2-3-1.2c-1.2,0-2.1,0.4-3,1.2s-1.2,1.8-1.2,3v33.4c0,1.2,0.4,2.1,1.2,3c0.8,0.8,1.8,1.2,3,1.2c1.2,0,2.1-0.4,3-1.2
		c0.8-0.8,1.2-1.8,1.2-3V352.9z"/>
	<path class="st1" d="M299.7,350.5h-12.6v54.9h-16.6v-54.9h-12.4v-16.7h41.6V350.5z"/>
	<path class="st1" d="M343,333.8v71.7h-16.7v-16.2h-8.3v16.2h-16.7v-71.7h16.7v38.8h8.3v-38.8H343z"/>
	<path class="st1" d="M365.7,350.5v13.4h16.7v16.7h-16.7v8.4h20v16.7h-36.6v-71.7h36.6v16.7H365.7z"/>
	<path class="st1" d="M397,338.2c4.1-4.1,9-6.1,14.7-6.1c5.7,0,10.6,2,14.7,6.1s6.1,9,6.1,14.8v52.6h-16.7v-16.7h-8.3v16.7h-16.7
		v-52.6C390.9,347.1,392.9,342.2,397,338.2z M415.8,372.1v-19.2c0-1.2-0.4-2.1-1.2-3s-1.8-1.2-2.9-1.2c-1.2,0-2.1,0.4-3,1.2
		s-1.2,1.8-1.2,3v19.2H415.8z"/>
	<path class="st1" d="M478.4,350.5h-12.6v54.9h-16.6v-54.9h-12.4v-16.7h41.6V350.5z"/>
	<path class="st1" d="M497,350.5v13.4h16.7v16.7H497v8.4h20v16.7h-36.6v-71.7h36.6v16.7H497z"/>
	<path class="st1" d="M566.8,405.5h-16.6l-2.8-20l-0.1-0.8c-0.2-1.2-0.8-2.1-1.7-3c-0.9-0.8-2-1.2-3.1-1.2H539v25h-16.7v-71.6h20.9
		c5.7,0,10.6,2.1,14.6,6.1c4,4,6,8.9,6,14.6v5.2c0,5.1-1.7,9.7-5.1,13.5c2.7,3.4,4.4,7.2,5,11.3l0.1,0.5L566.8,405.5z M543.1,363.9
		c1.2,0,2.1-0.4,3-1.2c0.8-0.8,1.2-1.8,1.2-3v-5.1c0-1.1-0.4-2.1-1.2-2.9c-0.8-0.8-1.8-1.2-3-1.2H539v13.4H543.1z"/>
	<path class="st1" d="M632.1,338.9h-12.6v66.5h-16.6v-66.5h-12.4v-16.7h41.6V338.9z"/>
	<path class="st1" d="M676.2,386.5c0,5.7-2.1,10.6-6.2,14.6c-4,4-8.9,6-14.6,6c-5.7,0-10.6-2-14.6-6c-4.1-4-6.1-8.8-6.2-14.5v-33.9
		c0-5.7,2.1-10.6,6.2-14.6c4.1-4,8.9-6,14.6-6c5.7,0,10.6,2,14.6,6c4.1,4,6.1,8.9,6.2,14.6V386.5z M659.6,352.9c0-1.2-0.4-2.1-1.2-3
		c-0.8-0.8-1.8-1.2-3-1.2s-2.1,0.4-3,1.2c-0.8,0.8-1.2,1.8-1.2,3v33.4c0,1.2,0.4,2.1,1.2,3c0.8,0.8,1.8,1.2,3,1.2s2.1-0.4,3-1.2
		c0.8-0.8,1.2-1.8,1.2-3V352.9z"/>
	<path class="st1" d="M698,350.5v13.4h16.7v16.7H698v8.4h20v16.7h-36.6v-71.7h36.6v16.7H698z"/>
	<path class="st1" d="M767.8,405.5h-16.6l-2.8-20l-0.1-0.8c-0.2-1.2-0.8-2.1-1.7-3c-0.9-0.8-2-1.2-3.1-1.2H740v25h-16.7v-71.6h20.9
		c5.7,0,10.6,2.1,14.6,6.1c4,4,6,8.9,6,14.6v5.2c0,5.1-1.7,9.7-5.1,13.5c2.7,3.4,4.4,7.2,5,11.3l0.1,0.5L767.8,405.5z M744.1,363.9
		c1.2,0,2.1-0.4,3-1.2c0.8-0.8,1.2-1.8,1.2-3v-5.1c0-1.1-0.4-2.1-1.2-2.9c-0.8-0.8-1.8-1.2-3-1.2H740v13.4H744.1z"/>
	<path class="st1" d="M812.3,333.9v71.5h-16.6v-17.7l-8.4-19.5v37.2h-16.6v-71.5h16.6v0.4l8.4,19.5v-19.9H812.3z"/>
	<path class="st1" d="M860,386.5c0,5.7-2.1,10.6-6.2,14.6c-4,4-8.9,6-14.6,6c-5.7,0-10.6-2-14.6-6c-4.1-4-6.1-8.8-6.2-14.5v-33.9
		c0-5.7,2.1-10.6,6.2-14.6c4.1-4,8.9-6,14.6-6c5.7,0,10.6,2,14.6,6c4.1,4,6.1,8.9,6.2,14.6V386.5z M843.4,352.9c0-1.2-0.4-2.1-1.2-3
		c-0.8-0.8-1.8-1.2-3-1.2s-2.1,0.4-3,1.2c-0.8,0.8-1.2,1.8-1.2,3v33.4c0,1.2,0.4,2.1,1.2,3c0.8,0.8,1.8,1.2,3,1.2s2.1-0.4,3-1.2
		c0.8-0.8,1.2-1.8,1.2-3V352.9z"/>
	<path class="st1" d="M907.4,386.5c0,5.7-2.1,10.6-6.2,14.6c-4,4-8.9,6-14.6,6c-5.7,0-10.6-2-14.6-6c-4.1-4-6.1-8.8-6.2-14.5v-33.9
		c0-5.7,2.1-10.6,6.2-14.6c4.1-4,8.9-6,14.6-6c5.7,0,10.6,2,14.6,6c4.1,4,6.1,8.9,6.2,14.6V386.5z M890.7,352.9c0-1.2-0.4-2.1-1.2-3
		c-0.8-0.8-1.8-1.2-3-1.2s-2.1,0.4-3,1.2c-0.8,0.8-1.2,1.8-1.2,3v33.4c0,1.2,0.4,2.1,1.2,3c0.8,0.8,1.8,1.2,3,1.2s2.1-0.4,3-1.2
		c0.8-0.8,1.2-1.8,1.2-3V352.9z"/>
	<path class="st1" d="M929,405.5h-16.7v-71.7H929V405.5z"/>
</g>
<g>
	<path class="st2" d="M34.5,400.7H17.8v-83.3h16.7V400.7z"/>
	<path class="st2" d="M107.4,400.6H90.7v-52.5c0-1.2-0.4-2.1-1.2-3s-1.8-1.2-2.9-1.2c-1.2,0-2.1,0.4-3,1.2s-1.2,1.8-1.2,3v52.5H65.8
		v-52.5c0-1.2-0.4-2.1-1.2-3s-1.8-1.2-3-1.2c-1,0-1.9,0.3-2.7,1c-0.1,0.1-0.2,0.2-0.3,0.2v0.1c-0.1,0.1-0.2,0.2-0.2,0.2v0.1h-0.1
		c-0.1,0.1-0.1,0.2-0.2,0.3c0.1-0.1,0.1-0.1-0.1,0.1c-0.1,0.1-0.1,0.2-0.2,0.3c0,0,0,0,0,0.1c-0.1,0.1-0.1,0.2-0.2,0.3l-0.1,0.2
		l-0.1,0.2c0,0-0.1,0.1-0.1,0.2l-0.1,0.2c0,0,0,0.1-0.1,0.2v0.2c0,0.1-0.1,0.3-0.1,0.4v52.5H40.8V348c0-5.7,2.1-10.6,6.1-14.6
		c4-4,8.9-6.1,14.6-6.1h0.8c4.3,0.2,8.2,1.5,11.7,4.2c3.7-2.8,7.8-4.2,12.5-4.2c5.7,0,10.6,2,14.7,6.1s6.1,9,6.1,14.7V400.6z"/>
	<path class="st2" d="M155.4,354.9c0,5.7-2.1,10.6-6.1,14.6c-4,4-8.9,6-14.6,6h-4.2v25h-16.6V329h20.8c5.7,0,10.6,2.1,14.6,6.1
		c4,4,6.1,8.9,6.1,14.6V354.9z M138.8,349.8c0-1.2-0.4-2.1-1.2-3s-1.8-1.2-3-1.2h-4.2V359h4.2c1.2,0,2.1-0.4,3-1.2s1.2-1.8,1.2-3
		V349.8z"/>
	<path class="st2" d="M204.7,400.6H188l-2.8-20l-0.1-0.8c-0.2-1.2-0.8-2.1-1.7-3s-2-1.2-3.1-1.2h-3.5v25h-16.7V329h20.9
		c5.7,0,10.6,2.1,14.6,6.1c4,4,6,8.9,6,14.6v5.2c0,5.1-1.7,9.7-5.1,13.5c2.7,3.4,4.4,7.2,5,11.3l0.1,0.5L204.7,400.6z M181,359.1
		c1.2,0,2.1-0.4,3-1.2c0.8-0.8,1.2-1.8,1.2-3v-5.1c0-1.1-0.4-2.1-1.2-2.9s-1.8-1.2-3-1.2h-4.1v13.4H181z"/>
	<path class="st2" d="M249.4,381.6c0,5.7-2.1,10.6-6.2,14.6c-4,4-8.9,6-14.6,6c-5.7,0-10.6-2-14.6-6c-4.1-4-6.1-8.8-6.2-14.5v-33.9
		c0-5.7,2.1-10.6,6.2-14.6c4.1-4,8.9-6,14.6-6c5.7,0,10.6,2,14.6,6c4.1,4,6.1,8.9,6.2,14.6V381.6z M232.8,348.1c0-1.2-0.4-2.1-1.2-3
		c-0.8-0.8-1.8-1.2-3-1.2c-1.2,0-2.1,0.4-3,1.2s-1.2,1.8-1.2,3v33.4c0,1.2,0.4,2.1,1.2,3c0.8,0.8,1.8,1.2,3,1.2c1.2,0,2.1-0.4,3-1.2
		c0.8-0.8,1.2-1.8,1.2-3V348.1z"/>
	<path class="st2" d="M294.7,345.7h-12.6v54.9h-16.6v-54.9h-12.4V329h41.6V345.7z"/>
	<path class="st2" d="M338,329v71.7h-16.7v-16.2h-8.3v16.2h-16.7V329h16.7v38.8h8.3V329H338z"/>
	<path class="st2" d="M360.8,345.6V359h16.7v16.7h-16.7v8.4h20v16.7h-36.6V329h36.6v16.7H360.8z"/>
	<path class="st2" d="M392,333.3c4.1-4.1,9-6.1,14.7-6.1c5.7,0,10.6,2,14.7,6.1s6.1,9,6.1,14.8v52.6h-16.7V384h-8.3v16.7h-16.7
		v-52.6C385.9,342.3,387.9,337.4,392,333.3z M410.9,367.3v-19.2c0-1.2-0.4-2.1-1.2-3s-1.8-1.2-2.9-1.2c-1.2,0-2.1,0.4-3,1.2
		s-1.2,1.8-1.2,3v19.2H410.9z"/>
	<path class="st2" d="M473.5,345.7h-12.6v54.9h-16.6v-54.9h-12.4V329h41.6V345.7z"/>
	<path class="st2" d="M492,345.6V359h16.7v16.7H492v8.4h20v16.7h-36.6V329H512v16.7H492z"/>
	<path class="st2" d="M561.8,400.6h-16.6l-2.8-20l-0.1-0.8c-0.2-1.2-0.8-2.1-1.7-3c-0.9-0.8-2-1.2-3.1-1.2H534v25h-16.7V329h20.9
		c5.7,0,10.6,2.1,14.6,6.1c4,4,6,8.9,6,14.6v5.2c0,5.1-1.7,9.7-5.1,13.5c2.7,3.4,4.4,7.2,5,11.3l0.1,0.5L561.8,400.6z M538.2,359.1
		c1.2,0,2.1-0.4,3-1.2c0.8-0.8,1.2-1.8,1.2-3v-5.1c0-1.1-0.4-2.1-1.2-2.9c-0.8-0.8-1.8-1.2-3-1.2H534v13.4H538.2z"/>
	<path class="st2" d="M627.1,334.1h-12.6v66.5h-16.6v-66.5h-12.4v-16.7h41.6V334.1z"/>
	<path class="st2" d="M671.2,381.6c0,5.7-2.1,10.6-6.2,14.6c-4,4-8.9,6-14.6,6c-5.7,0-10.6-2-14.6-6c-4.1-4-6.1-8.8-6.2-14.5v-33.9
		c0-5.7,2.1-10.6,6.2-14.6c4.1-4,8.9-6,14.6-6c5.7,0,10.6,2,14.6,6c4.1,4,6.1,8.9,6.2,14.6V381.6z M654.6,348.1c0-1.2-0.4-2.1-1.2-3
		c-0.8-0.8-1.8-1.2-3-1.2s-2.1,0.4-3,1.2c-0.8,0.8-1.2,1.8-1.2,3v33.4c0,1.2,0.4,2.1,1.2,3c0.8,0.8,1.8,1.2,3,1.2s2.1-0.4,3-1.2
		c0.8-0.8,1.2-1.8,1.2-3V348.1z"/>
	<path class="st2" d="M693,345.6V359h16.7v16.7H693v8.4h20v16.7h-36.6V329h36.6v16.7H693z"/>
	<path class="st2" d="M762.8,400.6h-16.6l-2.8-20l-0.1-0.8c-0.2-1.2-0.8-2.1-1.7-3c-0.9-0.8-2-1.2-3.1-1.2H735v25h-16.7V329h20.9
		c5.7,0,10.6,2.1,14.6,6.1c4,4,6,8.9,6,14.6v5.2c0,5.1-1.7,9.7-5.1,13.5c2.7,3.4,4.4,7.2,5,11.3l0.1,0.5L762.8,400.6z M739.1,359.1
		c1.2,0,2.1-0.4,3-1.2c0.8-0.8,1.2-1.8,1.2-3v-5.1c0-1.1-0.4-2.1-1.2-2.9c-0.8-0.8-1.8-1.2-3-1.2H735v13.4H739.1z"/>
	<path class="st2" d="M807.3,329v71.5h-16.6v-17.7l-8.4-19.5v37.2h-16.6V329h16.6v0.4l8.4,19.5V329H807.3z"/>
	<path class="st2" d="M855,381.6c0,5.7-2.1,10.6-6.2,14.6c-4,4-8.9,6-14.6,6c-5.7,0-10.6-2-14.6-6c-4.1-4-6.1-8.8-6.2-14.5v-33.9
		c0-5.7,2.1-10.6,6.2-14.6c4.1-4,8.9-6,14.6-6c5.7,0,10.6,2,14.6,6c4.1,4,6.1,8.9,6.2,14.6V381.6z M838.4,348.1c0-1.2-0.4-2.1-1.2-3
		c-0.8-0.8-1.8-1.2-3-1.2s-2.1,0.4-3,1.2c-0.8,0.8-1.2,1.8-1.2,3v33.4c0,1.2,0.4,2.1,1.2,3c0.8,0.8,1.8,1.2,3,1.2s2.1-0.4,3-1.2
		c0.8-0.8,1.2-1.8,1.2-3V348.1z"/>
	<path class="st2" d="M902.4,381.6c0,5.7-2.1,10.6-6.2,14.6c-4,4-8.9,6-14.6,6c-5.7,0-10.6-2-14.6-6c-4.1-4-6.1-8.8-6.2-14.5v-33.9
		c0-5.7,2.1-10.6,6.2-14.6c4.1-4,8.9-6,14.6-6c5.7,0,10.6,2,14.6,6c4.1,4,6.1,8.9,6.2,14.6V381.6z M885.8,348.1c0-1.2-0.4-2.1-1.2-3
		c-0.8-0.8-1.8-1.2-3-1.2s-2.1,0.4-3,1.2c-0.8,0.8-1.2,1.8-1.2,3v33.4c0,1.2,0.4,2.1,1.2,3c0.8,0.8,1.8,1.2,3,1.2s2.1-0.4,3-1.2
		c0.8-0.8,1.2-1.8,1.2-3V348.1z"/>
	<path class="st2" d="M924,400.7h-16.7V329H924V400.7z"/>
</g>
<g>
	<g>
		<path class="st3" d="M271.3,50.4c-2.7-5.1-6.1-9.8-10.4-14.2c-11.5-11.8-25.5-18.1-41.9-18.6h-2.4c-16.9,0.1-31.2,6.1-43.1,17.9
			c-11.8,11.9-17.8,26.2-17.9,43.1v54.5c0.1,16.4,5.9,30.5,17.3,42.4c0.2,0.2,0.4,0.5,0.7,0.7c0,0,0,0,0,0
			c2.7,5.1,6.2,9.8,10.4,14.3c11.4,11.7,25.2,18,41.5,18.6h2.4c0.3,0,0.6,0,0.9,0c-0.5,2.2-1.6,4.1-3.3,5.8
			c-2.4,2.4-5.3,3.6-8.7,3.6h-61.2v49h11.1v15h61.2c17,0,31.5-6,43.4-18c11.8-12,17.8-26.4,17.8-43.2c0-16.5-5.7-30.7-17.1-42.6
			c-0.2-0.2-0.5-0.5-0.8-0.8c-2.7-5.1-6.1-9.8-10.4-14.2c-11.5-11.9-25.5-18.1-41.9-18.6l-2.2-0.2c-0.3,0-0.7,0-1,0V92
			c0.1-0.3,0.2-0.6,0.2-0.7l0.2-0.5l0.2-0.7l0.2-0.7l0.2-0.5c0.1-0.2,0.3-0.5,0.5-0.8c0.1-0.2,0.1-0.3,0-0.2
			c0.1-0.2,0.3-0.5,0.5-0.9h0.2v-0.2c0.1-0.2,0.3-0.5,0.5-0.8h0.2c0.2-0.4,0.5-0.6,0.7-0.9h0.2c0.2-0.3,0.5-0.6,0.8-0.9
			c2.2-1.8,4.7-2.7,7.7-2.7c0.4,0,0.8,0,1.2,0v22.2h11.1v15h48.9V93.7c0-16.5-5.7-30.7-17.1-42.6C271.8,50.9,271.5,50.7,271.3,50.4z
			"/>
		<path class="st3" d="M436.6,37.5h-13.2l2.1-15h-49.1l-15.5,110.4c-0.5,3.3-2,6.1-4.8,8.5c-1.6,1.4-3.3,2.4-5.1,3V37.5h-11.1v-15
			h-49.1v245.2h11.1v15H351v-73.7h10.6c1.1,0,2.2,0.1,3.2,0.4l8.2,58.3h9l2.1,15h49l-8.5-60.3l-0.2-1.2c-2-14.4-8.4-27.3-19.1-38.5
			c0,0,0-0.1-0.1-0.1c8.6-10.3,13.9-21.9,15.7-34.5L436.6,37.5z"/>
		<path class="st3" d="M916.1,50.6c-2.9-5.5-6.7-10.6-11.4-15.2c-11.8-11.8-26.2-17.8-43.1-17.9h-2.4v49h2.2c3.4,0,6.3,1.2,8.7,3.6
			l0.2,0.2v11.2h2.2c0.4,0,0.8,0,1.2,0v186.1h11.1v15h48.9V93.4C933.7,76.7,927.8,62.4,916.1,50.6z"/>
		<polygon class="st3" points="138.2,22.7 89.3,22.7 89.3,70.3 75.8,38.9 75.8,37.7 70.6,37.7 64.7,23.9 64.7,22.7 15.8,22.7 
			15.8,267.4 26.9,267.4 26.9,282.4 75.8,282.4 75.8,149.7 89.3,181.1 89.3,267.4 100.4,267.4 100.4,282.4 149.3,282.4 149.3,37.7 
			138.2,37.7 		"/>
		<path class="st3" d="M542,35.3c-12-12-26.4-17.9-43.4-17.9c-16.9,0-31.3,6-43.2,17.9c-12,12-17.9,26.4-17.9,43.2v25h11.1v15h49.1
			v-25c0-3.3,1.2-6.2,3.6-8.5s5.2-3.6,8.5-3.6c0.4,0,0.8,0,1.2,0v51.3c0,3.4-1.2,6.3-3.6,8.7s-5.2,3.6-8.5,3.6h-2.2
			c-16.4,0.6-30.4,6.8-41.9,18.6c-11.4,11.9-17.1,26-17.3,42.4v61.5h11.1v15h122.5v-49H560v-15h-62.1c0.5-2.2,1.6-4.2,3.3-5.9
			c2.4-2.4,5.2-3.6,8.5-3.6h2.2v-0.2c16.4-0.6,30.4-6.7,41.9-18.5c11.4-11.8,17.2-26,17.3-42.4V93.6c0-16.8-5.9-31.1-17.8-43.1
			C550.4,45.1,546.7,40,542,35.3z"/>
		<path class="st3" d="M682.8,35.2c-12-11.9-26.4-17.8-43.2-17.8c-16.7,0-31.1,5.9-43.1,17.8c-12,11.8-18,26.1-18.1,42.9v134
			c0.1,16.6,6,30.7,17.7,42.5c2.9,5.5,6.7,10.6,11.5,15.4c12,11.8,26.3,17.8,43.1,17.8c16.9,0,31.3-5.9,43.2-17.8
			c12-12,18-26.4,18.1-43.2V93.4c-0.1-16.8-6.1-31.1-17.9-43C691.3,44.9,687.5,39.9,682.8,35.2z M638.6,93.6c0-3.3,1.2-6.2,3.6-8.5
			c2.4-2.4,5.2-3.6,8.5-3.6c0.4,0,0.8,0,1.2,0v129.9c0,3.4-1.2,6.3-3.6,8.7c-2.4,2.4-5.3,3.6-8.7,3.6c-0.3,0-0.7,0-1,0V93.6z"/>
		<path class="st3" d="M822.1,35.3c-12-12-26.4-17.9-43.4-17.9c-16.9,0-31.3,6-43.2,17.9c-12,12-17.9,26.4-17.9,43.2v25h11.1v15h49
			v-25c0-3.3,1.2-6.2,3.6-8.5c2.4-2.4,5.2-3.6,8.5-3.6c0.4,0,0.8,0,1.2,0v51.3c0,3.4-1.2,6.3-3.6,8.7c-2.4,2.4-5.2,3.6-8.5,3.6h-2.2
			c-16.4,0.6-30.4,6.8-41.9,18.6c-11.4,11.9-17.1,26-17.3,42.4v61.5h11.1v15h122.5v-49h-11.1v-15H778c0.5-2.2,1.6-4.2,3.3-5.9
			c2.4-2.4,5.2-3.6,8.5-3.6h2.2v-0.2c16.4-0.6,30.4-6.7,41.9-18.5c11.4-11.8,17.1-26,17.3-42.4V93.6c0-16.8-5.9-31.2-17.8-43.1
			C830.5,45.1,826.8,40,822.1,35.3z"/>
	</g>
	<g>
		<path class="st1" d="M64.7,123.7v143.7H26.9v15h48.9V149.7L64.7,123.7z M75.8,38.9v-1.2h-5.2l18.7,43.6v-11L75.8,38.9z
			 M138.2,37.7v229.7h-37.8v15h48.9V37.7H138.2z"/>
		<path class="st1" d="M225.5,197.7c-2.4-2.4-5.3-3.6-8.7-3.6h-2.4c-16-0.7-29.6-6.7-40.8-17.9c2.7,5.1,6.2,9.8,10.4,14.3
			c11.4,11.7,25.2,18,41.5,18.6h2.4c0.3,0,0.6,0,0.9,0c0.2-0.9,0.3-1.8,0.3-2.7C229.1,203,227.9,200.1,225.5,197.7z M225.5,70.2
			c-2.4-2.4-5.3-3.6-8.7-3.6c-3,0-5.5,0.9-7.7,2.7c-0.3,0.2-0.6,0.5-0.8,0.9h-0.2c-0.2,0.2-0.5,0.5-0.7,0.8h-0.2
			c-0.2,0.3-0.4,0.6-0.5,0.9v0.2h-0.2c-0.2,0.3-0.4,0.6-0.5,0.8c0.1-0.1,0.1-0.1,0,0.2c-0.2,0.3-0.4,0.6-0.5,0.9l-0.2,0.5l-0.2,0.7
			l-0.2,0.7l-0.2,0.5c0,0.1-0.1,0.3-0.2,0.7v55.9c0,3.4,1.2,6.3,3.6,8.7c2.1,2,4.7,3.2,7.5,3.4V92c0.1-0.3,0.2-0.6,0.2-0.7l0.2-0.5
			l0.2-0.7l0.2-0.7l0.2-0.5c0.1-0.2,0.3-0.5,0.5-0.8c0.1-0.2,0.1-0.3,0-0.2c0.1-0.2,0.3-0.5,0.5-0.9h0.2v-0.2
			c0.1-0.2,0.3-0.5,0.5-0.8h0.2c0.2-0.4,0.5-0.6,0.7-0.9h0.2c0.2-0.3,0.5-0.6,0.8-0.9c2.2-1.8,4.7-2.7,7.7-2.7c0.4,0,0.8,0,1.2,0
			v-2.9C229.1,75.5,227.9,72.6,225.5,70.2z M272,178.8c-0.2-0.2-0.5-0.5-0.8-0.8c4.5,8.5,6.7,18,6.7,28.3c0,16.9-5.9,31.3-17.8,43.2
			c-12,12-26.4,17.9-43.4,17.9h-50.1v15h61.2c17,0,31.5-6,43.4-18c11.8-12,17.8-26.4,17.8-43.2C289.1,204.9,283.4,190.7,272,178.8z
			 M272,51.2c-0.2-0.2-0.5-0.5-0.8-0.8c4.5,8.5,6.7,18,6.7,28.3v25.1h-37.8v15h48.9V93.7C289.1,77.2,283.4,63,272,51.2z"/>
		<path class="st1" d="M423.4,37.5l-13.4,95.6c-1.8,12.6-7.1,24.1-15.7,34.5c4.5,4.7,8.2,9.7,11.1,15c8.6-10.3,13.9-21.9,15.7-34.5
			l15.5-110.6H423.4z M424.6,222.4l-0.2-1.2c-2-14.4-8.4-27.3-19.1-38.5c4.1,7.3,6.8,15.2,7.9,23.6l0.2,1.2l8.5,60.3h-40l2.1,15h49
			L424.6,222.4z M364.6,208.6l-0.3-2.2c-0.5-3.4-2.1-6.3-4.8-8.7c-2.7-2.4-5.8-3.6-9.1-3.6h-10.6v73.7h-37.9v15H351v-73.7h10.6
			c1.1,0,2.2,0.1,3.2,0.4L364.6,208.6z M339.8,37.5v107.6h7c1.4,0,2.8-0.2,4.1-0.6V37.5H339.8z"/>
		<path class="st1" d="M507.3,70c-2.4-2.4-5.3-3.6-8.7-3.6c-3.3,0-6.1,1.2-8.5,3.6c-2.4,2.4-3.6,5.2-3.6,8.5v25h-37.9v15h49.1v-25
			c0-3.3,1.2-6.2,3.6-8.5s5.2-3.6,8.5-3.6c0.4,0,0.8,0,1.2,0v-2.9C510.9,75.3,509.7,72.4,507.3,70z M553.3,50.5
			c4.4,8.5,6.7,17.8,6.7,28.1v54.5c-0.1,16.4-5.9,30.5-17.3,42.4c-11.5,11.7-25.5,17.9-41.9,18.5v0.2h-2.2c-3.3,0-6.1,1.2-8.5,3.6
			c-2.4,2.4-3.6,5.2-3.6,8.5v12.3h11.4c0.5-2.2,1.6-4.2,3.3-5.9c2.4-2.4,5.2-3.6,8.5-3.6h2.2v-0.2c16.4-0.6,30.4-6.7,41.9-18.5
			c11.4-11.8,17.2-26,17.3-42.4V93.6C571.1,76.8,565.1,62.4,553.3,50.5z M560,233.5v34.1H448.5v15h122.5v-49H560z"/>
		<path class="st1" d="M694.2,50.4c4.5,8.4,6.7,17.8,6.8,28v133.3c-0.1,16.9-6.2,31.3-18.1,43.2c-12,11.9-26.4,17.8-43.2,17.8
			c-16.7,0-31.1-5.9-43.1-17.8c-0.1-0.1-0.3-0.3-0.4-0.4c2.9,5.5,6.7,10.6,11.5,15.4c12,11.8,26.3,17.8,43.1,17.8
			c16.9,0,31.3-5.9,43.2-17.8c12-12,18-26.4,18.1-43.2V93.4C712,76.6,706,62.3,694.2,50.4z M638.6,223.6V93.6c0-3.3,1.2-6.2,3.6-8.5
			c2.4-2.4,5.2-3.6,8.5-3.6c0.4,0,0.8,0,1.2,0v-2.9c0-3.3-1.2-6.1-3.6-8.5c-2.4-2.4-5.3-3.6-8.7-3.6c-3.3,0-6.2,1.2-8.5,3.6
			c-2.4,2.4-3.6,5.2-3.6,8.5v133c0,3.3,1.2,6.1,3.6,8.5C633.2,222.2,635.7,223.4,638.6,223.6z"/>
		<path class="st1" d="M787.4,70c-2.4-2.4-5.3-3.6-8.7-3.6c-3.3,0-6.2,1.2-8.6,3.6c-2.4,2.4-3.6,5.2-3.6,8.5v25h-37.9v15h49v-25
			c0-3.3,1.2-6.2,3.6-8.5c2.4-2.4,5.2-3.6,8.5-3.6c0.4,0,0.8,0,1.2,0v-2.9C791,75.3,789.8,72.4,787.4,70z M833.4,50.5
			c4.5,8.5,6.7,17.8,6.7,28.1v54.5c-0.1,16.4-5.9,30.5-17.3,42.4c-11.5,11.7-25.5,17.9-41.9,18.5v0.2h-2.2c-3.3,0-6.2,1.2-8.6,3.6
			c-2.4,2.4-3.6,5.2-3.6,8.5v12.3H778c0.5-2.2,1.6-4.2,3.3-5.9c2.4-2.4,5.2-3.6,8.5-3.6h2.2v-0.2c16.4-0.6,30.4-6.7,41.9-18.5
			c11.4-11.8,17.1-26,17.3-42.4V93.6C851.2,76.8,845.3,62.4,833.4,50.5z M840.1,233.5v34.1H728.6v15h122.5v-49H840.1z"/>
		<path class="st1" d="M916.1,50.6c4.4,8.4,6.5,17.6,6.5,27.8v189.2h-37.8v15h48.9V93.4C933.7,76.7,927.8,62.4,916.1,50.6z
			 M870.3,81.4h2.2c0.4,0,0.8,0,1.2,0v-2.9c0-3.2-1.1-6-3.4-8.4V81.4z"/>
	</g>
	<g>
		<polygon class="st2" points="138.2,22.7 138.2,267.4 89.3,267.4 89.3,181.1 75.8,149.7 64.7,123.7 64.7,267.4 15.8,267.4 
			15.8,22.7 64.7,22.7 64.7,23.9 70.6,37.7 89.3,81.3 89.3,22.7 		"/>
		<path class="st2" d="M236.6,85.2c-2.1-2.1-4.6-3.3-7.5-3.5v22.2h11.1V93.7C240.2,90.4,239,87.6,236.6,85.2z"/>
		<path class="st2" d="M240.2,103.9V93.7c0-3.3-1.2-6.2-3.6-8.5c-2.1-2.1-4.6-3.3-7.5-3.5v-2.9c0-3.3-1.2-6.1-3.6-8.5
			c-2.4-2.4-5.3-3.6-8.7-3.6c-3,0-5.5,0.9-7.7,2.7c-0.3,0.2-0.6,0.5-0.8,0.9h-0.2c-0.2,0.2-0.5,0.5-0.7,0.8h-0.2
			c-0.2,0.3-0.4,0.6-0.5,0.9v0.2h-0.2c-0.2,0.3-0.4,0.6-0.5,0.8c0.1-0.1,0.1-0.1,0,0.2c-0.2,0.3-0.4,0.6-0.5,0.9l-0.2,0.5l-0.2,0.7
			l-0.2,0.7l-0.2,0.5c0,0.1-0.1,0.3-0.2,0.7v55.9c0,3.4,1.2,6.3,3.6,8.7c2.1,2,4.7,3.2,7.5,3.4c0.3,0,0.7,0,1,0l2.2,0.2
			c16.4,0.6,30.4,6.8,41.9,18.6c4.2,4.4,7.7,9.2,10.4,14.2c4.5,8.5,6.7,18,6.7,28.3c0,16.9-5.9,31.3-17.8,43.2
			c-12,12-26.4,17.9-43.4,17.9h-61.2v-49h61.2c3.4,0,6.3-1.2,8.7-3.6c1.7-1.7,2.8-3.7,3.3-5.8c0.2-0.9,0.3-1.8,0.3-2.7
			c0-3.4-1.2-6.3-3.6-8.7c-2.4-2.4-5.3-3.6-8.7-3.6h-2.4c-16-0.7-29.6-6.7-40.8-17.9c0,0,0,0,0,0c-0.2-0.2-0.5-0.5-0.7-0.7
			c-11.4-11.9-17.2-26-17.3-42.4V78.6c0.1-16.9,6.1-31.2,17.9-43.1c11.9-11.8,26.2-17.8,43.1-17.9h2.4c16.4,0.6,30.4,6.8,41.9,18.6
			c4.2,4.4,7.7,9.2,10.4,14.2c4.5,8.5,6.7,18,6.7,28.3v25.1H240.2z"/>
		<path class="st2" d="M405.3,182.6C405.3,182.6,405.3,182.6,405.3,182.6c0,0,0,0.1,0.1,0.1C405.4,182.6,405.4,182.6,405.3,182.6z"
			/>
		<path class="st2" d="M409.9,133.1c-1.8,12.6-7.1,24.1-15.7,34.5c4.5,4.7,8.2,9.7,11.1,15c0,0,0,0,0,0c0,0,0.1,0.1,0.1,0.1
			c4.1,7.3,6.8,15.2,7.9,23.6l0.2,1.2l8.5,60.3h-49l-8.2-58.3l-0.1-0.9l-0.3-2.2c-0.5-3.4-2.1-6.3-4.8-8.7c-2.7-2.4-5.8-3.6-9.1-3.6
			h-10.6v73.7h-49.1V22.5h49.1v122.5h7c1.4,0,2.8-0.2,4.1-0.6c1.8-0.6,3.5-1.6,5.1-3c2.7-2.4,4.3-5.2,4.8-8.5l15.5-110.4h49.1
			l-2.1,15L409.9,133.1z"/>
		<path class="st2" d="M486.5,206.2v12.3H560v49H437.4v-61.5c0.1-16.4,5.9-30.5,17.3-42.4c11.5-11.8,25.5-18.1,41.9-18.6h2.2
			c3.3,0,6.2-1.2,8.5-3.6s3.6-5.3,3.6-8.7V78.6c0-3.3-1.2-6.1-3.6-8.5c-2.4-2.4-5.3-3.6-8.7-3.6c-3.3,0-6.1,1.2-8.5,3.6
			c-2.4,2.4-3.6,5.2-3.6,8.5v25h-49v-25c0-16.9,6-31.3,17.9-43.2c12-12,26.4-17.9,43.2-17.9c17,0,31.5,6,43.4,17.9
			c4.7,4.7,8.4,9.7,11.3,15.1c4.4,8.5,6.7,17.8,6.7,28.1v54.5c-0.1,16.4-5.9,30.5-17.3,42.4c-11.5,11.7-25.5,17.9-41.9,18.5v0.2
			h-2.2c-3.3,0-6.1,1.2-8.5,3.6C487.7,200.1,486.5,202.9,486.5,206.2z"/>
		<path class="st2" d="M694.2,50.4c-2.9-5.4-6.6-10.5-11.3-15.2c-12-11.9-26.4-17.8-43.2-17.8c-16.7,0-31.1,5.9-43.1,17.8
			c-12,11.8-18,26.1-18.1,42.9v134c0.1,16.6,6,30.7,17.7,42.5c0.1,0.1,0.2,0.3,0.4,0.4c12,11.9,26.3,17.8,43.1,17.8
			c16.9,0,31.3-5.9,43.2-17.8c12-12,18-26.4,18.1-43.2V78.4C700.9,68.2,698.6,58.8,694.2,50.4z M627.5,211.5v-133
			c0-3.3,1.2-6.1,3.6-8.5c2.4-2.4,5.2-3.6,8.5-3.6c3.4,0,6.3,1.2,8.7,3.6c2.4,2.4,3.6,5.2,3.6,8.5v132.8c0,3.4-1.2,6.3-3.6,8.7
			c-2.4,2.4-5.3,3.6-8.7,3.6c-0.3,0-0.7,0-1,0c-2.9-0.2-5.4-1.4-7.5-3.5C628.7,217.7,627.5,214.9,627.5,211.5z"/>
		<path class="st2" d="M766.6,206.2v12.3h73.5v49H717.5v-61.5c0.1-16.4,5.9-30.5,17.3-42.4c11.5-11.8,25.5-18.1,41.9-18.6h2.2
			c3.3,0,6.2-1.2,8.5-3.6c2.4-2.4,3.6-5.3,3.6-8.7V78.6c0-3.3-1.2-6.1-3.6-8.5c-2.4-2.4-5.3-3.6-8.7-3.6c-3.3,0-6.2,1.2-8.6,3.6
			c-2.4,2.4-3.6,5.2-3.6,8.5v25h-49v-25c0-16.9,6-31.3,17.9-43.2c12-12,26.4-17.9,43.2-17.9c17,0,31.4,6,43.4,17.9
			c4.7,4.7,8.4,9.7,11.3,15.1c4.5,8.5,6.7,17.8,6.7,28.1v54.5c-0.1,16.4-5.9,30.5-17.3,42.4c-11.5,11.7-25.5,17.9-41.9,18.5v0.2
			h-2.2c-3.3,0-6.2,1.2-8.6,3.6C767.8,200.1,766.6,202.9,766.6,206.2z"/>
		<path class="st2" d="M922.6,78.4v189.2h-48.9v-189c0-3.2-1.1-6-3.4-8.4l-0.2-0.2c-2.4-2.4-5.3-3.6-8.7-3.6h-2.2v-49h2.4
			c16.9,0.1,31.2,6.1,43.1,17.9c4.7,4.7,8.5,9.8,11.4,15.2C920.4,59,922.6,68.2,922.6,78.4z"/>
	</g>
</g>
</svg>
