<?xml version="1.0" encoding="utf-8"?>
<!-- Generator: Adobe Illustrator 25.4.1, SVG Export Plug-In . SVG Version: 6.00 Build 0)  -->
<svg version="1.1" id="Layer_1" xmlns="http://www.w3.org/2000/svg" xmlns:xlink="http://www.w3.org/1999/xlink" x="0px" y="0px"
	 viewBox="0 0 950 416" style="enable-background:new 0 0 950 416;" xml:space="preserve">
<style type="text/css">
	.st0{fill:none;stroke:#3C3D3B;stroke-width:18;stroke-miterlimit:10;}
	.st1{fill:none;}
	.st2{fill:#CD3E28;}
	.st3{font-family:'FORQUE';}
	.st4{font-size:118.9287px;}
	.st5{fill:#E9CD1F;}
	.st6{fill:none;stroke:#3C3D3B;stroke-width:33;stroke-miterlimit:10;}
</style>
<g>
	<path class="st0" d="M105.5,337.1c-0.9-1.5-2-2.9-3.3-4.2c-4.1-4.1-9-6.1-14.7-6.1c-4.6,0-8.8,1.4-12.5,4.2
		c-3.5-2.6-7.4-4-11.7-4.2h-0.8c-5.7,0-10.6,2.1-14.6,6.1c-4,4-6.1,8.9-6.1,14.6v52.6h5v5.8h16.6v-52.5c0-0.2,0-0.3,0.1-0.4v-0.2
		c0-0.1,0.1-0.2,0.1-0.2l0.1-0.2c0-0.2,0-0.2,0.1-0.2l0.1-0.2l0.1-0.2c0-0.1,0.1-0.2,0.2-0.3c0,0,0,0,0-0.1c0-0.1,0.1-0.2,0.2-0.3
		c0.1-0.2,0.1-0.2,0.1-0.1c0-0.1,0.1-0.2,0.2-0.3h0.1v-0.1c0.1-0.1,0.2-0.2,0.2-0.2v-0.1c0.1-0.1,0.2-0.2,0.3-0.2
		c0.5-0.5,1.1-0.8,1.8-0.9v50.8h5v5.8h16.6v-52.5c0-1.2,0.4-2.1,1.2-3c0.6-0.6,1.3-1,2-1.1v50.8h5v5.8h16.7v-52.5
		c0-5.7-2-10.6-6.1-14.7C106.7,338.1,106.1,337.6,105.5,337.1z"/>
	<path class="st0" d="M207.8,385c-0.6-4.1-2.2-7.9-5-11.3c3.4-3.9,5.1-8.4,5.1-13.5v-5.2c0-5.7-2-10.6-6-14.6
		c-0.6-0.6-1.2-1.1-1.8-1.6c-0.9-1.5-2-2.9-3.3-4.2c-4.1-4-8.9-6.1-14.6-6.1h-20.9v23.6c-0.6-4.5-2.5-8.4-5.9-11.7
		c-0.6-0.6-1.2-1.1-1.8-1.6c-0.9-1.5-2-2.9-3.3-4.2c-4-4-8.9-6.1-14.6-6.1h-20.8v71.5h5v5.8h16.6v-25h4.2c5.7,0,10.6-2,14.6-6
		c3.3-3.4,5.3-7.3,5.9-11.7v37h5v5.8h16.7v-25h3.4l2.7,19.2h4.2l0.8,5.8h16.6l-2.8-20.4L207.8,385z M136.5,350.9h3.3v3.4
		c0,1.2-0.4,2.1-1.2,3c-0.6,0.6-1.3,1-2.1,1.1V350.9z M182.9,351h3.3v3.4c0,1.2-0.4,2.1-1.2,3c-0.6,0.6-1.3,0.9-2,1.1V351z"/>
	<path class="st0" d="M247.6,337.1c-0.9-1.5-2-2.9-3.3-4.2c-4-4-8.9-6-14.6-6c-5.7,0-10.6,2-14.6,6c-4.1,4-6.1,8.8-6.2,14.6v33.9
		c0,5.7,2.1,10.5,6.2,14.5c0.5,0.5,1.1,1,1.7,1.5c0.9,1.5,2,2.9,3.4,4.3c4.1,4,8.9,6,14.6,6c5.7,0,10.6-2,14.6-6
		c4.1-4,6.1-8.9,6.2-14.6v-33.7c0-5.7-2.1-10.6-6.2-14.6C248.7,338.1,248.1,337.6,247.6,337.1z M230.5,353.4c0-1.2,0.4-2.1,1.2-3
		c0.6-0.6,1.3-1,2.1-1.1v31.8c0,1.2-0.4,2.1-1.2,3c-0.6,0.6-1.3,1-2.1,1.1V353.4z"/>
	<path class="st0" d="M425.7,337c-0.9-1.5-2-2.9-3.3-4.2c-4.1-4.1-9-6.1-14.7-6.1c-5.8,0-10.7,2-14.7,6.1c-4.1,4.1-6.1,9-6.1,14.7
		v52.6h5v5.8h16.7v-16.7h3.3v10.9h5v5.8h16.7v-52.6c0-5.8-2-10.7-6.1-14.7C426.9,338.1,426.3,337.5,425.7,337z M408.6,353.4
		c0-1.2,0.4-2.1,1.2-3c0.6-0.6,1.3-1,2-1.1v17.5h-3.3V353.4z"/>
	<path class="st0" d="M564.9,385c-0.6-4.1-2.2-7.9-5-11.3c3.4-3.9,5.1-8.4,5.1-13.5v-5.2c0-5.7-2-10.6-6-14.6
		c-0.6-0.6-1.2-1.1-1.8-1.6c-0.9-1.5-2-2.9-3.3-4.2c-4.1-4-8.9-6.1-14.6-6.1h-20.9v71.6h5v5.8H540v-25h3.4l2.7,19.2h4.2l0.8,5.8
		h16.6l-2.8-20.4L564.9,385z M540,351h3.3v3.4c0,1.2-0.4,2.1-1.2,3c-0.6,0.6-1.3,0.9-2,1.1V351z"/>
	<path class="st0" d="M669.3,337.1c-0.9-1.5-2-2.9-3.3-4.2c-4-4-8.9-6-14.6-6c-5.7,0-10.6,2-14.6,6c-1.5,1.4-2.7,3-3.6,4.7v-14.8h-5
		v-5.8h-41.6v16.7h5v5.8h7.3v60.8h5v5.8h16.6v-66.5h11.7c-1.1,2.5-1.6,5.1-1.6,8v33.9c0,5.7,2.1,10.5,6.2,14.5
		c0.5,0.5,1.1,1,1.7,1.5c0.9,1.5,2,2.9,3.4,4.3c4.1,4,8.9,6,14.6,6c5.7,0,10.6-2,14.6-6c4.1-4,6.1-8.9,6.2-14.6v-33.7
		c0-5.7-2.1-10.6-6.2-14.6C670.5,338.1,669.9,337.6,669.3,337.1z M652.2,353.4c0-1.2,0.4-2.1,1.2-3c0.6-0.6,1.3-1,2.1-1.1v31.8
		c0,1.2-0.4,2.1-1.2,3c-0.6,0.6-1.3,1-2.1,1.1V353.4z"/>
	<path class="st0" d="M853.2,337.1c-0.9-1.5-2-2.9-3.3-4.2c-4-4-8.9-6-14.6-6c-5.7,0-10.6,2-14.6,6c-4.1,4-6.1,8.8-6.2,14.6v33.9
		c0,5.7,2.1,10.5,6.2,14.5c0.5,0.5,1.1,1,1.7,1.5c0.9,1.5,2,2.9,3.4,4.3c4.1,4,8.9,6,14.6,6c5.7,0,10.6-2,14.6-6
		c4.1-4,6.1-8.9,6.2-14.6v-33.7c0-5.7-2.1-10.6-6.2-14.6C854.3,338.1,853.8,337.6,853.2,337.1z M836.1,353.4c0-1.2,0.4-2.1,1.2-3
		c0.6-0.6,1.3-1,2.1-1.1v31.8c0,1.2-0.4,2.1-1.2,3c-0.6,0.6-1.3,1-2.1,1.1V353.4z"/>
	<path class="st0" d="M924.9,334.3v-5.8h-16.7v22.7c-0.5-4.8-2.5-9-6-12.5c-0.6-0.6-1.1-1.1-1.7-1.6c-0.9-1.5-2-2.9-3.3-4.2
		c-4-4-8.9-6-14.6-6c-5.7,0-10.6,2-14.6,6c-4.1,4-6.1,8.8-6.2,14.6v33.9c0,5.7,2.1,10.5,6.2,14.5c0.5,0.5,1.1,1,1.7,1.5
		c0.9,1.5,2,2.9,3.4,4.3c4.1,4,8.9,6,14.6,6c5.7,0,10.6-2,14.6-6c3.6-3.5,5.6-7.7,6-12.5v11.2h5v5.8H930v-71.7H924.9z M883.4,353.4
		c0-1.2,0.4-2.1,1.2-3c0.6-0.6,1.3-1,2.1-1.1v31.8c0,1.2-0.4,2.1-1.2,3c-0.6,0.6-1.3,1-2.1,1.1V353.4z"/>
	<polygon class="st0" points="35.4,316.9 18.8,316.9 18.8,400.2 23.8,400.2 23.8,406 40.5,406 40.5,322.7 35.4,322.7 	"/>
	<polygon class="st0" points="339,328.5 322.3,328.5 322.3,367.3 319.1,367.3 319.1,334.3 314,334.3 314,328.5 297.4,328.5 
		297.4,334.3 295.7,334.3 295.7,328.6 254.1,328.6 254.1,345.2 259.2,345.2 259.2,351 266.5,351 266.5,400.2 271.5,400.2 
		271.5,405.9 288.1,405.9 288.1,351 297.4,351 297.4,400.2 302.4,400.2 302.4,406 319.1,406 319.1,389.8 322.3,389.8 322.3,400.2 
		327.4,400.2 327.4,406 344.1,406 344.1,334.3 339,334.3 	"/>
	<polygon class="st0" points="381.7,328.5 345,328.5 345,400.2 350.1,400.2 350.1,406 386.7,406 386.7,389.3 381.7,389.3 
		381.7,383.6 366.8,383.6 366.8,381 383.4,381 383.4,364.3 378.4,364.3 378.4,358.5 366.8,358.5 366.8,350.9 386.7,350.9 
		386.7,334.3 381.7,334.3 	"/>
	<polygon class="st0" points="512.9,328.5 476.3,328.5 476.3,334.3 474.4,334.3 474.4,328.6 432.9,328.6 432.9,345.2 437.9,345.2 
		437.9,351 445.2,351 445.2,400.2 450.3,400.2 450.3,405.9 466.9,405.9 466.9,351 476.3,351 476.3,400.2 481.3,400.2 481.3,406 
		518,406 518,389.3 512.9,389.3 512.9,383.6 498,383.6 498,381 514.7,381 514.7,364.3 509.6,364.3 509.6,358.5 498,358.5 498,350.9 
		518,350.9 518,334.3 512.9,334.3 	"/>
	<polygon class="st0" points="713.9,328.5 677.3,328.5 677.3,400.2 682.3,400.2 682.3,406 719,406 719,389.3 713.9,389.3 
		713.9,383.6 699,383.6 699,381 715.6,381 715.6,364.3 710.6,364.3 710.6,358.5 699,358.5 699,350.9 719,350.9 719,334.3 
		713.9,334.3 	"/>
	<path class="st0" d="M808.3,328.6h-16.6v13.9l-3.3-7.7v-0.4h-2.7l-2.3-5.4v-0.4h-16.6V391l-0.8-5.5l-0.1-0.5
		c-0.6-4.1-2.2-7.9-5-11.3c3.4-3.9,5.1-8.4,5.1-13.5v-5.2c0-5.7-2-10.6-6-14.6c-0.6-0.6-1.2-1.1-1.8-1.6c-0.9-1.5-2-2.9-3.3-4.2
		c-4.1-4-8.9-6.1-14.6-6.1h-20.9v71.6h5v5.8H741v-25h3.4l2.7,19.2h4.2l0.8,5.8h16.6l-0.8-5.8h3.8v5.8h16.6v-31.2l3.3,7.7v17.7h5v5.8
		h16.6v-71.5h-5V328.6z M741,351h3.3v3.4c0,1.2-0.4,2.1-1.2,3c-0.6,0.6-1.3,0.9-2,1.1V351z"/>
</g>
<rect x="-11.1" y="315.3" class="st1" width="982" height="108.7"/>
<text transform="matrix(1 0 0 1 23.8785 405.4633)" class="st2 st3 st4">Improtheater Toernooi</text>
<rect x="-16.1" y="310.4" class="st1" width="982" height="108.7"/>
<text transform="matrix(1 0 0 1 18.901 400.6303)" class="st5 st3 st4">Improtheater Toernooi</text>
<g>
	<g>
		<path class="st6" d="M272.3,50.4c-2.7-5.1-6.1-9.8-10.4-14.2c-11.5-11.8-25.5-18.1-41.9-18.6h-2.4c-16.9,0.1-31.2,6.1-43.1,17.9
			c-11.8,11.9-17.8,26.2-17.9,43.1v54.5c0.1,16.4,5.9,30.5,17.3,42.4c0.2,0.2,0.4,0.5,0.7,0.7c0,0,0,0,0,0
			c2.7,5.1,6.2,9.8,10.4,14.3c11.4,11.7,25.2,18,41.5,18.6h2.4c0.3,0,0.6,0,0.9,0c-0.5,2.2-1.6,4.1-3.3,5.8
			c-2.4,2.4-5.3,3.6-8.7,3.6h-61.2v49h11.1v15h61.2c17,0,31.5-6,43.4-18c11.8-12,17.8-26.4,17.8-43.2c0-16.5-5.7-30.7-17.1-42.6
			c-0.2-0.2-0.5-0.5-0.8-0.8c-2.7-5.1-6.1-9.8-10.4-14.2c-11.5-11.9-25.5-18.1-41.9-18.6l-2.2-0.2c-0.3,0-0.7,0-1,0V92
			c0.1-0.3,0.2-0.6,0.2-0.7l0.2-0.5l0.2-0.7l0.2-0.7l0.2-0.5c0.1-0.2,0.3-0.5,0.5-0.8c0.1-0.2,0.1-0.3,0-0.2
			c0.1-0.2,0.3-0.5,0.5-0.9h0.2v-0.2c0.1-0.2,0.3-0.5,0.5-0.8h0.2c0.2-0.4,0.5-0.6,0.7-0.9h0.2c0.2-0.3,0.5-0.6,0.8-0.9
			c2.2-1.8,4.7-2.7,7.7-2.7c0.4,0,0.8,0,1.2,0v22.2h11.1v15h48.9V93.7c0-16.5-5.7-30.7-17.1-42.6C272.8,50.9,272.5,50.7,272.3,50.4z
			"/>
		<path class="st6" d="M437.6,37.5h-13.2l2.1-15h-49.1l-15.5,110.4c-0.5,3.3-2,6.1-4.8,8.5c-1.6,1.4-3.3,2.4-5.1,3V37.5h-11.1v-15
			h-49.1v245.2h11.1v15H352v-73.7h10.6c1.1,0,2.2,0.1,3.2,0.4l8.2,58.3h9l2.1,15h49l-8.5-60.3l-0.2-1.2c-2-14.4-8.4-27.3-19.1-38.5
			c0,0,0-0.1-0.1-0.1c8.6-10.3,13.9-21.9,15.7-34.5L437.6,37.5z"/>
		<path class="st6" d="M917.1,50.6c-2.9-5.5-6.7-10.6-11.4-15.2c-11.8-11.8-26.2-17.8-43.1-17.9h-2.4v49h2.2c3.4,0,6.3,1.2,8.7,3.6
			l0.2,0.2v11.2h2.2c0.4,0,0.8,0,1.2,0v186.1h11.1v15h48.9V93.4C934.7,76.7,928.8,62.4,917.1,50.6z"/>
		<polygon class="st6" points="139.2,22.7 90.3,22.7 90.3,70.3 76.8,38.9 76.8,37.7 71.6,37.7 65.7,23.9 65.7,22.7 16.8,22.7 
			16.8,267.4 27.9,267.4 27.9,282.4 76.8,282.4 76.8,149.7 90.3,181.1 90.3,267.4 101.4,267.4 101.4,282.4 150.3,282.4 150.3,37.7 
			139.2,37.7 		"/>
		<path class="st6" d="M543,35.3c-12-12-26.4-17.9-43.4-17.9c-16.9,0-31.3,6-43.2,17.9c-12,12-17.9,26.4-17.9,43.2v25h11.1v15h49.1
			v-25c0-3.3,1.2-6.2,3.6-8.5s5.2-3.6,8.5-3.6c0.4,0,0.8,0,1.2,0v51.3c0,3.4-1.2,6.3-3.6,8.7s-5.2,3.6-8.5,3.6h-2.2
			c-16.4,0.6-30.4,6.8-41.9,18.6c-11.4,11.9-17.1,26-17.3,42.4v61.5h11.1v15h122.5v-49H561v-15h-62.1c0.5-2.2,1.6-4.2,3.3-5.9
			c2.4-2.4,5.2-3.6,8.5-3.6h2.2v-0.2c16.4-0.6,30.4-6.7,41.9-18.5c11.4-11.8,17.2-26,17.3-42.4V93.6c0-16.8-5.9-31.1-17.8-43.1
			C551.4,45.1,547.7,40,543,35.3z"/>
		<path class="st6" d="M683.8,35.2c-12-11.9-26.4-17.8-43.2-17.8c-16.7,0-31.1,5.9-43.1,17.8c-12,11.8-18,26.1-18.1,42.9v134
			c0.1,16.6,6,30.7,17.7,42.5c2.9,5.5,6.7,10.6,11.5,15.4c12,11.8,26.3,17.8,43.1,17.8c16.9,0,31.3-5.9,43.2-17.8
			c12-12,18-26.4,18.1-43.2V93.4c-0.1-16.8-6.1-31.1-17.9-43C692.3,44.9,688.5,39.9,683.8,35.2z M639.6,93.6c0-3.3,1.2-6.2,3.6-8.5
			c2.4-2.4,5.2-3.6,8.5-3.6c0.4,0,0.8,0,1.2,0v129.9c0,3.4-1.2,6.3-3.6,8.7c-2.4,2.4-5.3,3.6-8.7,3.6c-0.3,0-0.7,0-1,0V93.6z"/>
		<path class="st6" d="M823.1,35.3c-12-12-26.4-17.9-43.4-17.9c-16.9,0-31.3,6-43.2,17.9c-12,12-17.9,26.4-17.9,43.2v25h11.1v15h49
			v-25c0-3.3,1.2-6.2,3.6-8.5c2.4-2.4,5.2-3.6,8.5-3.6c0.4,0,0.8,0,1.2,0v51.3c0,3.4-1.2,6.3-3.6,8.7c-2.4,2.4-5.2,3.6-8.5,3.6h-2.2
			c-16.4,0.6-30.4,6.8-41.9,18.6c-11.4,11.9-17.1,26-17.3,42.4v61.5h11.1v15h122.5v-49h-11.1v-15H779c0.5-2.2,1.6-4.2,3.3-5.9
			c2.4-2.4,5.2-3.6,8.5-3.6h2.2v-0.2c16.4-0.6,30.4-6.7,41.9-18.5c11.4-11.8,17.1-26,17.3-42.4V93.6c0-16.8-5.9-31.2-17.8-43.1
			C831.5,45.1,827.8,40,823.1,35.3z"/>
	</g>
	<g>
		<path class="st2" d="M65.7,123.7v143.7H27.9v15h48.9V149.7L65.7,123.7z M76.8,38.9v-1.2h-5.2l18.7,43.6v-11L76.8,38.9z
			 M139.2,37.7v229.7h-37.8v15h48.9V37.7H139.2z"/>
		<path class="st2" d="M226.5,197.7c-2.4-2.4-5.3-3.6-8.7-3.6h-2.4c-16-0.7-29.6-6.7-40.8-17.9c2.7,5.1,6.2,9.8,10.4,14.3
			c11.4,11.7,25.2,18,41.5,18.6h2.4c0.3,0,0.6,0,0.9,0c0.2-0.9,0.3-1.8,0.3-2.7C230.1,203,228.9,200.1,226.5,197.7z M226.5,70.2
			c-2.4-2.4-5.3-3.6-8.7-3.6c-3,0-5.5,0.9-7.7,2.7c-0.3,0.2-0.6,0.5-0.8,0.9h-0.2c-0.2,0.2-0.5,0.5-0.7,0.8h-0.2
			c-0.2,0.3-0.4,0.6-0.5,0.9v0.2h-0.2c-0.2,0.3-0.4,0.6-0.5,0.8c0.1-0.1,0.1-0.1,0,0.2c-0.2,0.3-0.4,0.6-0.5,0.9l-0.2,0.5l-0.2,0.7
			l-0.2,0.7l-0.2,0.5c0,0.1-0.1,0.3-0.2,0.7v55.9c0,3.4,1.2,6.3,3.6,8.7c2.1,2,4.7,3.2,7.5,3.4V92c0.1-0.3,0.2-0.6,0.2-0.7l0.2-0.5
			l0.2-0.7l0.2-0.7l0.2-0.5c0.1-0.2,0.3-0.5,0.5-0.8c0.1-0.2,0.1-0.3,0-0.2c0.1-0.2,0.3-0.5,0.5-0.9h0.2v-0.2
			c0.1-0.2,0.3-0.5,0.5-0.8h0.2c0.2-0.4,0.5-0.6,0.7-0.9h0.2c0.2-0.3,0.5-0.6,0.8-0.9c2.2-1.8,4.7-2.7,7.7-2.7c0.4,0,0.8,0,1.2,0
			v-2.9C230.1,75.5,228.9,72.6,226.5,70.2z M273,178.8c-0.2-0.2-0.5-0.5-0.8-0.8c4.5,8.5,6.7,18,6.7,28.3c0,16.9-5.9,31.3-17.8,43.2
			c-12,12-26.4,17.9-43.4,17.9h-50.1v15h61.2c17,0,31.5-6,43.4-18c11.8-12,17.8-26.4,17.8-43.2C290.1,204.9,284.4,190.7,273,178.8z
			 M273,51.2c-0.2-0.2-0.5-0.5-0.8-0.8c4.5,8.5,6.7,18,6.7,28.3v25.1h-37.8v15h48.9V93.7C290.1,77.2,284.4,63,273,51.2z"/>
		<path class="st2" d="M424.4,37.5l-13.4,95.6c-1.8,12.6-7.1,24.1-15.7,34.5c4.5,4.7,8.2,9.7,11.1,15c8.6-10.3,13.9-21.9,15.7-34.5
			l15.5-110.6H424.4z M425.6,222.4l-0.2-1.2c-2-14.4-8.4-27.3-19.1-38.5c4.1,7.3,6.8,15.2,7.9,23.6l0.2,1.2l8.5,60.3h-40l2.1,15h49
			L425.6,222.4z M365.6,208.6l-0.3-2.2c-0.5-3.4-2.1-6.3-4.8-8.7c-2.7-2.4-5.8-3.6-9.1-3.6h-10.6v73.7h-37.9v15H352v-73.7h10.6
			c1.1,0,2.2,0.1,3.2,0.4L365.6,208.6z M340.8,37.5v107.6h7c1.4,0,2.8-0.2,4.1-0.6V37.5H340.8z"/>
		<path class="st2" d="M508.3,70c-2.4-2.4-5.3-3.6-8.7-3.6c-3.3,0-6.1,1.2-8.5,3.6c-2.4,2.4-3.6,5.2-3.6,8.5v25h-37.9v15h49.1v-25
			c0-3.3,1.2-6.2,3.6-8.5s5.2-3.6,8.5-3.6c0.4,0,0.8,0,1.2,0v-2.9C511.9,75.3,510.7,72.4,508.3,70z M554.3,50.5
			c4.4,8.5,6.7,17.8,6.7,28.1v54.5c-0.1,16.4-5.9,30.5-17.3,42.4c-11.5,11.7-25.5,17.9-41.9,18.5v0.2h-2.2c-3.3,0-6.1,1.2-8.5,3.6
			c-2.4,2.4-3.6,5.2-3.6,8.5v12.3h11.4c0.5-2.2,1.6-4.2,3.3-5.9c2.4-2.4,5.2-3.6,8.5-3.6h2.2v-0.2c16.4-0.6,30.4-6.7,41.9-18.5
			c11.4-11.8,17.2-26,17.3-42.4V93.6C572.1,76.8,566.1,62.4,554.3,50.5z M561,233.5v34.1H449.5v15h122.5v-49H561z"/>
		<path class="st2" d="M695.2,50.4c4.5,8.4,6.7,17.8,6.8,28v133.3c-0.1,16.9-6.2,31.3-18.1,43.2c-12,11.9-26.4,17.8-43.2,17.8
			c-16.7,0-31.1-5.9-43.1-17.8c-0.1-0.1-0.3-0.3-0.4-0.4c2.9,5.5,6.7,10.6,11.5,15.4c12,11.8,26.3,17.8,43.1,17.8
			c16.9,0,31.3-5.9,43.2-17.8c12-12,18-26.4,18.1-43.2V93.4C713,76.6,707,62.3,695.2,50.4z M639.6,223.6V93.6c0-3.3,1.2-6.2,3.6-8.5
			c2.4-2.4,5.2-3.6,8.5-3.6c0.4,0,0.8,0,1.2,0v-2.9c0-3.3-1.2-6.1-3.6-8.5c-2.4-2.4-5.3-3.6-8.7-3.6c-3.3,0-6.2,1.2-8.5,3.6
			c-2.4,2.4-3.6,5.2-3.6,8.5v133c0,3.3,1.2,6.1,3.6,8.5C634.2,222.2,636.7,223.4,639.6,223.6z"/>
		<path class="st2" d="M788.4,70c-2.4-2.4-5.3-3.6-8.7-3.6c-3.3,0-6.2,1.2-8.6,3.6c-2.4,2.4-3.6,5.2-3.6,8.5v25h-37.9v15h49v-25
			c0-3.3,1.2-6.2,3.6-8.5c2.4-2.4,5.2-3.6,8.5-3.6c0.4,0,0.8,0,1.2,0v-2.9C792,75.3,790.8,72.4,788.4,70z M834.4,50.5
			c4.5,8.5,6.7,17.8,6.7,28.1v54.5c-0.1,16.4-5.9,30.5-17.3,42.4c-11.5,11.7-25.5,17.9-41.9,18.5v0.2h-2.2c-3.3,0-6.2,1.2-8.6,3.6
			c-2.4,2.4-3.6,5.2-3.6,8.5v12.3H779c0.5-2.2,1.6-4.2,3.3-5.9c2.4-2.4,5.2-3.6,8.5-3.6h2.2v-0.2c16.4-0.6,30.4-6.7,41.9-18.5
			c11.4-11.8,17.1-26,17.3-42.4V93.6C852.2,76.8,846.3,62.4,834.4,50.5z M841.1,233.5v34.1H729.6v15h122.5v-49H841.1z"/>
		<path class="st2" d="M917.1,50.6c4.4,8.4,6.5,17.6,6.5,27.8v189.2h-37.8v15h48.9V93.4C934.7,76.7,928.8,62.4,917.1,50.6z
			 M871.3,81.4h2.2c0.4,0,0.8,0,1.2,0v-2.9c0-3.2-1.1-6-3.4-8.4V81.4z"/>
	</g>
	<g>
		<polygon class="st5" points="139.2,22.7 139.2,267.4 90.3,267.4 90.3,181.1 76.8,149.7 65.7,123.7 65.7,267.4 16.8,267.4 
			16.8,22.7 65.7,22.7 65.7,23.9 71.6,37.7 90.3,81.3 90.3,22.7 		"/>
		<path class="st5" d="M237.6,85.2c-2.1-2.1-4.6-3.3-7.5-3.5v22.2h11.1V93.7C241.2,90.4,240,87.6,237.6,85.2z"/>
		<path class="st5" d="M241.2,103.9V93.7c0-3.3-1.2-6.2-3.6-8.5c-2.1-2.1-4.6-3.3-7.5-3.5v-2.9c0-3.3-1.2-6.1-3.6-8.5
			c-2.4-2.4-5.3-3.6-8.7-3.6c-3,0-5.5,0.9-7.7,2.7c-0.3,0.2-0.6,0.5-0.8,0.9h-0.2c-0.2,0.2-0.5,0.5-0.7,0.8h-0.2
			c-0.2,0.3-0.4,0.6-0.5,0.9v0.2h-0.2c-0.2,0.3-0.4,0.6-0.5,0.8c0.1-0.1,0.1-0.1,0,0.2c-0.2,0.3-0.4,0.6-0.5,0.9l-0.2,0.5l-0.2,0.7
			l-0.2,0.7l-0.2,0.5c0,0.1-0.1,0.3-0.2,0.7v55.9c0,3.4,1.2,6.3,3.6,8.7c2.1,2,4.7,3.2,7.5,3.4c0.3,0,0.7,0,1,0l2.2,0.2
			c16.4,0.6,30.4,6.8,41.9,18.6c4.2,4.4,7.7,9.2,10.4,14.2c4.5,8.5,6.7,18,6.7,28.3c0,16.9-5.9,31.3-17.8,43.2
			c-12,12-26.4,17.9-43.4,17.9h-61.2v-49h61.2c3.4,0,6.3-1.2,8.7-3.6c1.7-1.7,2.8-3.7,3.3-5.8c0.2-0.9,0.3-1.8,0.3-2.7
			c0-3.4-1.2-6.3-3.6-8.7c-2.4-2.4-5.3-3.6-8.7-3.6h-2.4c-16-0.7-29.6-6.7-40.8-17.9c0,0,0,0,0,0c-0.2-0.2-0.5-0.5-0.7-0.7
			c-11.4-11.9-17.2-26-17.3-42.4V78.6c0.1-16.9,6.1-31.2,17.9-43.1c11.9-11.8,26.2-17.8,43.1-17.9h2.4c16.4,0.6,30.4,6.8,41.9,18.6
			c4.2,4.4,7.7,9.2,10.4,14.2c4.5,8.5,6.7,18,6.7,28.3v25.1H241.2z"/>
		<path class="st5" d="M406.3,182.6C406.3,182.6,406.3,182.6,406.3,182.6c0,0,0,0.1,0.1,0.1C406.4,182.6,406.4,182.6,406.3,182.6z"
			/>
		<path class="st5" d="M410.9,133.1c-1.8,12.6-7.1,24.1-15.7,34.5c4.5,4.7,8.2,9.7,11.1,15c0,0,0,0,0,0c0,0,0.1,0.1,0.1,0.1
			c4.1,7.3,6.8,15.2,7.9,23.6l0.2,1.2l8.5,60.3h-49l-8.2-58.3l-0.1-0.9l-0.3-2.2c-0.5-3.4-2.1-6.3-4.8-8.7c-2.7-2.4-5.8-3.6-9.1-3.6
			h-10.6v73.7h-49.1V22.5h49.1v122.5h7c1.4,0,2.8-0.2,4.1-0.6c1.8-0.6,3.5-1.6,5.1-3c2.7-2.4,4.3-5.2,4.8-8.5l15.5-110.4h49.1
			l-2.1,15L410.9,133.1z"/>
		<path class="st5" d="M487.5,206.2v12.3H561v49H438.4v-61.5c0.1-16.4,5.9-30.5,17.3-42.4c11.5-11.8,25.5-18.1,41.9-18.6h2.2
			c3.3,0,6.2-1.2,8.5-3.6s3.6-5.3,3.6-8.7V78.6c0-3.3-1.2-6.1-3.6-8.5c-2.4-2.4-5.3-3.6-8.7-3.6c-3.3,0-6.1,1.2-8.5,3.6
			c-2.4,2.4-3.6,5.2-3.6,8.5v25h-49v-25c0-16.9,6-31.3,17.9-43.2c12-12,26.4-17.9,43.2-17.9c17,0,31.5,6,43.4,17.9
			c4.7,4.7,8.4,9.7,11.3,15.1c4.4,8.5,6.7,17.8,6.7,28.1v54.5c-0.1,16.4-5.9,30.5-17.3,42.4c-11.5,11.7-25.5,17.9-41.9,18.5v0.2
			h-2.2c-3.3,0-6.1,1.2-8.5,3.6C488.7,200.1,487.5,202.9,487.5,206.2z"/>
		<path class="st5" d="M695.2,50.4c-2.9-5.4-6.6-10.5-11.3-15.2c-12-11.9-26.4-17.8-43.2-17.8c-16.7,0-31.1,5.9-43.1,17.8
			c-12,11.8-18,26.1-18.1,42.9v134c0.1,16.6,6,30.7,17.7,42.5c0.1,0.1,0.2,0.3,0.4,0.4c12,11.9,26.3,17.8,43.1,17.8
			c16.9,0,31.3-5.9,43.2-17.8c12-12,18-26.4,18.1-43.2V78.4C701.9,68.2,699.6,58.8,695.2,50.4z M628.5,211.5v-133
			c0-3.3,1.2-6.1,3.6-8.5c2.4-2.4,5.2-3.6,8.5-3.6c3.4,0,6.3,1.2,8.7,3.6c2.4,2.4,3.6,5.2,3.6,8.5v132.8c0,3.4-1.2,6.3-3.6,8.7
			c-2.4,2.4-5.3,3.6-8.7,3.6c-0.3,0-0.7,0-1,0c-2.9-0.2-5.4-1.4-7.5-3.5C629.7,217.7,628.5,214.9,628.5,211.5z"/>
		<path class="st5" d="M767.6,206.2v12.3h73.5v49H718.5v-61.5c0.1-16.4,5.9-30.5,17.3-42.4c11.5-11.8,25.5-18.1,41.9-18.6h2.2
			c3.3,0,6.2-1.2,8.5-3.6c2.4-2.4,3.6-5.3,3.6-8.7V78.6c0-3.3-1.2-6.1-3.6-8.5c-2.4-2.4-5.3-3.6-8.7-3.6c-3.3,0-6.2,1.2-8.6,3.6
			c-2.4,2.4-3.6,5.2-3.6,8.5v25h-49v-25c0-16.9,6-31.3,17.9-43.2c12-12,26.4-17.9,43.2-17.9c17,0,31.4,6,43.4,17.9
			c4.7,4.7,8.4,9.7,11.3,15.1c4.5,8.5,6.7,17.8,6.7,28.1v54.5c-0.1,16.4-5.9,30.5-17.3,42.4c-11.5,11.7-25.5,17.9-41.9,18.5v0.2
			h-2.2c-3.3,0-6.2,1.2-8.6,3.6C768.8,200.1,767.6,202.9,767.6,206.2z"/>
		<path class="st5" d="M923.6,78.4v189.2h-48.9v-189c0-3.2-1.1-6-3.4-8.4l-0.2-0.2c-2.4-2.4-5.3-3.6-8.7-3.6h-2.2v-49h2.4
			c16.9,0.1,31.2,6.1,43.1,17.9c4.7,4.7,8.5,9.8,11.4,15.2C921.4,59,923.6,68.2,923.6,78.4z"/>
	</g>
</g>
</svg>
